# xmcd
#
# Track frame offsets:
#	150
#	17504
#	36643
#	52049
#	71736
#	91343
#	105115
#	117517
#	133197
#	145592
#	158805
#
# Disc length: 2246 seconds
#
# Revision: 6
# Processed by: cddbd v1.5.2PL0 Copyright (c) Steve Scherf et al.
# Submitted via: EasyCDDAExtractor 16.0.8.2
#
DISCID=9508c40b
DTITLE=Συλλογικός δίσκος - This Is Greece 3
DYEAR=2001
DGENRE=Παραδοσιακή
TTITLE0=Τσαλιγοπούλου Ελένη - Τζιβαέρι
TTITLE1=Κάτσαρης Γιώργος - Νά 'σαν τα νιάτα δυό φορές
TTITLE2=Κάτσαρης Γιώργος - Στης πικροδάφνης τον ανθό
TTITLE3=Άνευ ερμηνευτού - Καραγκούνα
TTITLE4=Κατζημίχας Χάρης-Κατσιμίχας Πάνος - Αμοριανό μου πέραμα
TTITLE5=Ροδινός Ανδρέας - Ρεθυμνιώτικο πεντοζάλι
TTITLE6=Κωχ Μαρίζα - Ξεκινά μιά ψαροπούλα
TTITLE7=Κωχ Μαρίζα - Θα πάρω μιά ψαρόβαρκα
TTITLE8=Κωχ Μαρίζα - Σαμιώτισσα
TTITLE9=Κονιτοπούλου Στέλλα - Ντάρι ντάρι
TTITLE10=Κονιτοπούλου Στέλλα - Θαλασσάκι μου
EXTD=YEAR: 2001
EXTT0=
EXTT1=
EXTT2=
EXTT3=
EXTT4=
EXTT5=
EXTT6=
EXTT7=
EXTT8=
EXTT9=
EXTT10=
PLAYORDER=
